<svg xmlns="http://www.w3.org/2000/svg" width="100" height="100" viewBox="0 0 100 100"><g fill="none" fill-rule="evenodd" stroke-width="1.5"><path stroke="#8736C1" d="m58.938 51.067 4.427 2.775 3.42 2.043 10.62 2.87c.352.079.668.275.905.55l2.791 2.87c.354.392.55.864.55 1.376v3.93c0 1.1-.864 1.966-1.965 1.966h-5.9a5.82 5.82 0 0 0-1.729-4.128 4.85 4.85 0 0 0-1.888-1.258 5.52 5.52 0 0 0-2.282-.473 5.51 5.51 0 0 0-2.28.473 4.822 4.822 0 0 0-1.887 1.258 5.819 5.819 0 0 0-1.73 4.128H38.392c0-1.613-.67-3.067-1.731-4.128a4.822 4.822 0 0 0-1.888-1.258 5.525 5.525 0 0 0-2.281-.473c-.826 0-1.572.159-2.28.473a4.85 4.85 0 0 0-1.889 1.258 5.819 5.819 0 0 0-1.73 4.128h-1.967c-.158 0-.315 0-.474-.08l-3.932-.983a1.936 1.936 0 0 1-1.493-1.886v-8.962a.803.803 0 0 1 .078-.353.73.73 0 0 1 .079-.275c.039-.118.078-.236.158-.354.077-.118.195-.235.314-.353 0 0 .038 0 .038-.04.237-.158.473-.276.787-.394h.04c.078 0 .156 0 .235-.037l.08-.03c.052-.011.103-.011.157-.011h5.23l6.372-4.755.983-.748a1.85 1.85 0 0 1 1.18-.394h5.661"/><path stroke="#8736C1" d="M38.389 69.453a5.9 5.9 0 0 1-5.897 5.9 5.9 5.9 0 0 1 0-11.8 5.901 5.901 0 0 1 5.897 5.9m35.423 0a5.898 5.898 0 1 1-11.793 0 5.9 5.9 0 0 1 5.895-5.9 5.9 5.9 0 0 1 5.898 5.9"/><g stroke="#FF4722" stroke-linecap="round"><path d="m61.667 58.216-14.865 5.896a.4.4 0 0 1-.513-.204l-8.144-19.05a.364.364 0 0 1 .01-.311l4.728-9.276a.4.4 0 0 1 .48-.19L53.5 38.46a.388.388 0 0 1 .234.211l8.144 19.053a.37.37 0 0 1-.21.492z"/><path d="M51.349 46.7a2.838 2.838 0 1 0-1.511 3.717m-1.51 3.718a2.836 2.836 0 1 0 5.226-2.207 2.837 2.837 0 0 0-3.715-1.51m-2.778-6.582.571 1.354m4.416 10.465.571 1.352"/></g><path stroke="#FF4722" d="m41.542 37.892 1.226-2.585a2.559 2.559 0 0 0-2.648-3.634 3.754 3.754 0 0 1-4.23-4.069l.185-1.987"/></g></svg>