<svg xmlns="http://www.w3.org/2000/svg" width="100" height="100" viewBox="0 0 100 100"><g fill="none" fill-rule="evenodd" stroke-width="1.5"><path stroke="#8736C1" d="M51.302 43.815v-.013"/><path stroke="#8736C1" d="m42.735 57.197-4.816 1.789-2.34-1.772-2.89 1.667-2.373-.568-3.492 3.855-7.602-2.46 2.666-5.265 17.493-6.448a11.693 11.693 0 0 1 7.602-10.028c1.015-.362 2.047-.602 3.08-.671m.498 5.177a11.712 11.712 0 0 0-5.04 3.234"/><path stroke="#8736C1" d="M50.56 42.473c3.87-1.221 8.257-.43 11.456 2.494 0-.017-.017-.051-.017-.069-1.858-5.056-6.829-8.032-11.937-7.602M37.041 53.21l-17.375 6.409"/><path stroke="#FF4722" stroke-linecap="round" d="M62.766 61.514a11.664 11.664 0 0 1-12.202 3.225l-3.482 3.805-2.88-.511-1.805 2.819-2.367.586-1.328 5.018-7.88 1.293-.054-5.884 12.58-13.762a4.936 4.936 0 0 1-.194-.526 11.669 11.669 0 0 1 2.368-11.864c4.352-4.756 11.741-5.082 16.494-.746l.019.015a11.69 11.69 0 0 1 .73 16.532zm-19.099 2.303L31.162 77.476"/><path stroke="#FF4722" stroke-linecap="round" d="M59.154 48.14a2.961 2.961 0 0 1-3.999 4.369"/><path stroke="#8736C1" d="M55.514 47.873a15.485 15.485 0 0 0 4.42 3.527 14.768 14.768 0 0 0 5.883 1.668c.361.034.723.052 1.101.052 8.29 0 15.016-6.709 15.016-15 0-8.29-6.725-15.015-15.016-15.015-8.014 0-14.552 6.278-14.982 14.19"/><path stroke="#FF4722" stroke-linecap="round" d="M55.155 52.51a2.962 2.962 0 0 1 3.999-4.369"/></g></svg>