<svg xmlns="http://www.w3.org/2000/svg" width="100" height="100" viewBox="0 0 100 100"><g fill="none" fill-rule="evenodd" stroke-width="1.5"><path stroke="#8736C1" d="M72.908 33.579H26.897c0 4.406-3.601 7.983-8.02 7.983h-.057v16.781h.055c.918 0 1.808.155 2.628.45 3.218 1.093 5.504 4.18 5.393 7.773l-.015.013h46.04v-.013c-.156-4.52 3.502-8.223 8.02-8.223V41.562c-4.434 0-8.034-3.577-8.034-7.983z"/><path stroke="#8736C1" d="M26.896 33.579c0 4.406-3.6 7.983-8.02 7.983h-.056v-5.415a2.578 2.578 0 0 1 2.584-2.568h5.492zm54.044 2.568v5.415c-4.432 0-8.033-3.578-8.033-7.984h5.452a2.576 2.576 0 0 1 2.581 2.569zm0 22.196v5.668a2.576 2.576 0 0 1-2.581 2.568h-5.437v-.013c-.157-4.519 3.501-8.223 8.018-8.223z"/><path stroke="#8736C1" d="M80.94 36.147v5.415c-4.432 0-8.033-3.578-8.033-7.984h5.452a2.576 2.576 0 0 1 2.581 2.569zm-54.044-2.568c0 4.406-3.6 7.983-8.02 7.983h-.056v-5.415a2.578 2.578 0 0 1 2.584-2.568h5.492zM80.94 58.343v5.668a2.576 2.576 0 0 1-2.581 2.568h-5.437v-.013c-.157-4.519 3.501-8.223 8.018-8.223zm-54.044 8.223-.015.013h-5.477a2.578 2.578 0 0 1-2.584-2.568v-5.668h.056c.918 0 1.809.155 2.627.45 3.219 1.093 5.504 4.18 5.393 7.773z"/><path stroke="#FF4722" stroke-linecap="round" d="M57.682 50.079c0 .141 0 .294-.015.436-.155 6.088-3.587 10.944-7.786 10.944-3.417 0-6.33-3.214-7.373-7.69a15.939 15.939 0 0 1-.43-3.69c0-.52.032-1.038.078-1.53.43-4.714 2.836-8.502 5.977-9.54a5.316 5.316 0 0 1 1.748-.295c4.307 0 7.801 5.08 7.801 11.365z"/><path stroke="#8736C1" d="m77.385 32.992-1.055-3.984a.999.999 0 0 0-1.177-.722l-24.797 5.351m24.04-5.553-1.941-4.178a1 1 0 0 0-1.276-.508l-25.76 10.24M22.418 67.213l1.054 3.985a.999.999 0 0 0 1.177.722l24.798-5.352m-24.041 5.553 1.943 4.18a1 1 0 0 0 1.276.507l25.76-10.24"/><path stroke="#FF4722" stroke-linecap="round" d="M52.436 47.542a2.557 2.557 0 0 0-2.555-2.555 2.555 2.555 0 0 0 0 5.11m-2.556 2.557a2.556 2.556 0 0 0 5.11 0 2.555 2.555 0 0 0-2.553-2.555m-.001-6.433v1.322m0 10.231v1.322"/></g></svg>